<?xml version="1.0" standalone="no"?>
<!DOCTYPE svg PUBLIC "-//W3C//DTD SVG 20010904//EN"
 "http://www.w3.org/TR/2001/REC-SVG-20010904/DTD/svg10.dtd">
<svg version="1.0" xmlns="http://www.w3.org/2000/svg"
 width="800.000000pt" height="310.000000pt" viewBox="0 0 800.000000 310.000000"
 preserveAspectRatio="xMidYMid meet">
<metadata>
Created by potrace 1.16, written by Peter Selinger 2001-2019
</metadata>
<g transform="translate(0.000000,310.000000) scale(0.100000,-0.100000)"
fill="#000000" stroke="none">
<path d="M3948 2997 l-56 -52 -34 22 c-75 50 -141 42 -215 -25 -55 -49 -73
-83 -73 -134 0 -26 -3 -29 -23 -25 -23 6 -129 -6 -159 -18 -15 -6 -18 -2 -18
24 0 32 -22 85 -44 106 -26 24 -96 48 -126 41 -69 -13 -180 -117 -201 -187
l-11 -36 -62 13 c-95 19 -171 27 -204 19 -17 -3 -59 -32 -94 -64 l-63 -58 0
-81 c0 -71 3 -83 24 -106 14 -15 39 -33 55 -42 43 -21 157 -44 221 -44 91 0
85 14 85 -209 0 -179 2 -199 20 -229 33 -53 111 -76 176 -52 38 15 140 105
160 143 14 26 18 61 18 195 l1 164 25 13 c14 8 42 14 63 15 l37 0 0 -44 c0
-61 16 -98 53 -121 34 -22 35 -30 22 -112 -20 -116 46 -232 152 -268 49 -17
91 -2 148 52 25 23 49 43 52 43 3 0 18 -11 34 -24 33 -28 92 -41 147 -31 28 4
56 22 100 63 l62 58 0 102 c0 66 4 101 10 97 6 -3 10 -12 10 -20 0 -8 9 -39
21 -69 26 -71 92 -139 166 -173 50 -23 69 -26 153 -25 178 2 361 57 459 137
112 91 164 157 176 225 7 41 -23 96 -65 117 -29 15 -104 8 -137 -13 -12 -8
-27 -14 -34 -14 -6 0 -25 -10 -42 -22 -98 -70 -200 -104 -243 -80 -17 9 -16
11 9 23 15 7 27 16 27 21 0 4 5 8 10 8 14 0 113 73 168 124 73 67 85 101 90
254 4 133 4 133 -27 197 -65 132 -203 187 -347 138 -131 -44 -282 -195 -364
-364 l-32 -64 6 148 c8 170 3 189 -69 256 -41 38 -48 41 -102 41 -56 0 -60 -2
-115 -53z m146 -11 c18 -7 43 -27 55 -44 20 -28 21 -42 21 -224 l0 -194 34
-49 34 -48 -33 -48 c-32 -47 -33 -50 -40 -194 -8 -163 -17 -185 -74 -185 -90
0 -112 35 -116 182 l-2 113 -54 -3 c-96 -6 -90 6 -87 -159 1 -132 0 -147 -17
-159 -26 -19 -52 -17 -92 7 -55 34 -76 88 -78 201 -2 96 -2 97 -38 137 -65 72
-61 126 11 174 23 15 44 38 46 50 2 12 11 99 20 192 14 154 18 172 38 188 28
23 82 17 112 -12 23 -23 23 -31 12 -253 l-8 -168 30 0 c16 0 50 3 76 6 l46 7
0 71 c0 78 17 332 25 383 3 18 13 34 23 36 9 3 18 5 20 6 1 0 18 -5 36 -13z
m701 -7 c54 -15 119 -82 136 -139 16 -52 15 -189 -1 -252 -23 -87 -223 -228
-323 -228 -89 0 -107 -23 -71 -91 20 -39 65 -58 156 -65 96 -8 143 5 251 72
141 87 207 91 207 13 0 -36 -6 -47 -55 -94 -99 -97 -266 -155 -445 -155 -111
0 -155 16 -212 76 -80 85 -124 220 -115 354 11 149 70 289 166 393 100 108
199 145 306 116z m-1508 -135 c24 -24 25 -29 19 -96 l-7 -70 33 7 c18 3 55 14
83 22 27 9 69 17 93 17 36 1 48 -4 68 -27 47 -54 23 -125 -59 -176 -18 -11
-73 -29 -122 -40 -50 -12 -101 -24 -114 -27 l-24 -7 5 -147 c3 -80 1 -175 -3
-211 -6 -56 -12 -68 -40 -91 -51 -43 -109 -37 -135 14 -13 25 -14 56 -8 192 7
179 2 231 -24 241 -9 4 -69 13 -132 21 -195 23 -229 40 -237 117 -7 56 13 92
54 101 15 4 69 -1 118 -9 160 -29 245 -19 245 28 0 40 30 114 57 141 36 36 94
36 130 0z"/>
<path d="M4671 2764 c-89 -97 -115 -142 -116 -199 0 -57 9 -63 75 -45 55 15
120 76 159 150 35 65 35 88 -2 128 -33 36 -60 28 -116 -34z"/>
<path d="M1600 2744 c-56 -7 -254 -56 -265 -65 -5 -5 -15 -9 -23 -9 -8 0 -28
-6 -45 -14 -18 -7 -63 -26 -102 -41 -73 -28 -285 -131 -344 -166 -70 -42 -189
-138 -270 -220 -94 -94 -132 -152 -172 -262 -26 -73 -29 -92 -29 -209 0 -144
13 -189 86 -310 59 -97 293 -315 394 -368 14 -7 81 -49 150 -93 68 -44 151
-95 185 -112 314 -165 412 -223 494 -294 l34 -30 -29 -8 c-16 -4 -173 -8 -349
-8 -277 1 -329 3 -390 19 -38 10 -75 22 -81 27 -6 5 -42 14 -80 20 -89 15
-131 4 -207 -56 -96 -76 -119 -160 -72 -258 26 -54 56 -79 133 -110 138 -56
194 -71 375 -102 128 -21 179 -25 369 -25 203 0 227 2 315 25 128 34 205 74
301 155 107 92 154 162 177 265 l6 29 15 -30 c20 -42 89 -84 137 -84 58 0 137
43 198 108 73 76 88 133 69 256 -11 71 -11 92 1 133 21 71 18 546 -4 624 -49
178 -168 217 -298 96 -83 -77 -82 -75 -89 -392 -6 -246 -9 -289 -28 -354 -14
-48 -22 -106 -23 -160 -1 -47 -4 -75 -6 -61 -14 74 -113 155 -383 313 -79 47
-142 82 -200 113 -19 11 -37 21 -40 24 -3 3 -21 14 -40 24 -102 56 -317 197
-400 262 -224 176 -290 270 -290 413 0 151 63 230 255 325 146 71 139 69 250
104 156 50 186 55 362 60 149 4 178 2 222 -14 28 -10 51 -21 51 -24 0 -4 11
-12 25 -18 20 -9 25 -19 25 -49 0 -51 51 -140 86 -149 14 -4 46 -4 72 0 39 5
56 15 103 62 61 61 79 103 79 186 0 89 -46 212 -104 277 -58 65 -167 127 -272
155 -58 16 -265 28 -334 20z m275 -69 c161 -29 312 -138 348 -252 50 -157 24
-268 -61 -261 -36 3 -38 5 -62 74 -14 40 -33 81 -44 92 -47 53 -243 82 -429
63 -67 -7 -147 -18 -177 -25 -183 -44 -480 -172 -585 -253 -104 -80 -145 -166
-145 -305 0 -166 64 -265 282 -439 145 -116 243 -179 539 -349 285 -164 437
-261 483 -306 102 -103 93 -252 -23 -371 -79 -80 -169 -125 -319 -160 -105
-24 -401 -24 -557 0 -208 33 -440 102 -489 145 -45 41 -58 109 -32 161 32 60
118 67 252 19 l89 -32 339 -4 c285 -3 355 -1 433 13 100 18 176 50 181 77 5
24 -163 159 -290 234 -56 34 -157 89 -223 124 -160 83 -248 134 -320 185 -33
23 -92 61 -132 84 -87 51 -248 189 -322 274 -29 34 -72 100 -94 147 -38 77
-42 92 -45 181 -5 109 10 174 60 274 100 199 306 353 660 494 303 120 485 151
683 116z m597 -1070 c37 -37 48 -85 60 -272 10 -140 9 -196 -2 -295 -8 -68
-13 -184 -11 -259 3 -149 -4 -178 -54 -217 -32 -25 -85 -35 -119 -22 -63 24
-97 155 -77 299 7 46 20 101 29 120 13 30 17 85 22 316 4 205 9 287 19 306 26
52 93 64 133 24z"/>
<path d="M7272 2009 c-105 -20 -204 -84 -336 -215 -94 -94 -130 -148 -187
-283 l-15 -33 -26 89 c-44 146 -132 223 -242 211 -53 -6 -135 -70 -161 -125
-27 -55 -5 -177 55 -318 25 -61 22 -65 -26 -36 -17 10 -56 26 -88 35 -53 16
-62 16 -104 1 -32 -10 -65 -33 -100 -69 l-53 -55 -9 25 c-6 14 -10 28 -10 31
0 3 -11 20 -24 37 -23 30 -51 48 -131 81 -73 31 -106 50 -127 73 -17 17 -32
22 -75 22 -65 0 -115 -30 -187 -112 -56 -64 -76 -104 -76 -154 0 -24 -9 -48
-25 -70 -14 -18 -25 -37 -25 -42 0 -5 -6 -15 -14 -22 -12 -9 -19 -4 -40 29
-14 22 -55 73 -92 113 -36 40 -79 92 -95 115 -31 45 -38 96 -15 125 14 19 112
48 159 48 40 0 105 33 153 77 57 53 74 82 74 124 0 109 -97 198 -216 199 -149
0 -398 -145 -519 -305 l-27 -35 -31 48 c-49 74 -140 160 -199 187 -80 37 -165
35 -238 -7 -60 -33 -200 -169 -200 -192 0 -8 -5 -16 -10 -18 -14 -4 -57 -133
-64 -191 -3 -26 -8 -67 -11 -91 -5 -37 -10 -45 -31 -50 -14 -4 -47 -27 -74
-52 -59 -55 -60 -53 -60 107 0 66 -5 141 -11 167 -13 52 -55 103 -105 127 -43
20 -118 19 -152 -2 -50 -32 -124 -108 -151 -156 l-28 -47 -41 82 c-49 99 -87
142 -147 169 -44 19 -47 19 -108 3 -68 -19 -124 -53 -181 -110 -67 -67 -81
-113 -96 -311 -5 -73 -14 -152 -20 -175 -7 -24 -18 -68 -26 -98 -8 -30 -19
-70 -25 -88 -6 -18 -11 -65 -11 -106 0 -62 4 -80 26 -115 35 -55 94 -93 155
-99 59 -5 93 11 160 78 57 57 71 94 81 215 4 44 8 74 8 67 1 -7 14 -29 29 -48
68 -90 182 -93 269 -8 l30 29 -1 -156 0 -157 31 -38 c54 -67 136 -65 217 4 96
83 116 127 126 278 l6 100 43 -18 c40 -18 42 -21 42 -63 0 -94 59 -171 139
-182 57 -8 99 11 167 75 65 61 84 94 84 146 l0 34 98 4 c121 6 171 30 272 131
l71 71 27 -29 c60 -64 92 -107 86 -116 -3 -5 -29 -9 -58 -9 -67 0 -110 -18
-162 -67 -54 -51 -71 -79 -79 -134 -9 -58 8 -119 41 -153 32 -31 138 -66 203
-66 58 0 213 39 286 71 46 21 126 81 168 128 20 22 37 36 37 31 0 -24 60 -138
87 -164 56 -56 90 -66 231 -66 175 0 238 19 322 97 41 38 47 40 55 14 3 -11
22 -34 41 -50 30 -27 43 -31 90 -31 53 0 58 2 109 51 30 28 63 69 72 90 16 35
43 53 43 29 0 -5 6 -10 14 -10 7 0 19 -6 25 -14 6 -8 31 -19 54 -24 74 -19
137 12 249 120 80 78 112 151 116 260 4 91 11 99 37 45 25 -53 92 -118 184
-178 28 -19 51 -37 51 -41 0 -5 5 -8 11 -8 14 0 38 -30 39 -47 0 -7 -9 -13
-19 -13 -11 0 -23 -4 -26 -10 -3 -5 -14 -10 -23 -10 -9 0 -30 -7 -46 -15 -15
-8 -35 -15 -43 -15 -15 0 -51 -14 -122 -49 -62 -29 -140 -112 -156 -166 -27
-88 11 -158 92 -171 52 -8 231 12 281 32 133 54 239 131 368 266 104 109 128
199 84 317 -31 85 -60 120 -185 227 -65 54 -127 111 -138 125 -18 26 -18 29
-2 84 23 79 56 128 105 154 65 34 74 30 88 -37 17 -84 44 -106 126 -106 l64 0
61 59 61 58 0 144 0 144 -32 49 c-24 37 -45 55 -80 70 -87 37 -176 47 -266 29z
m199 -75 c99 -29 123 -69 123 -204 0 -52 -3 -107 -7 -122 -8 -32 -46 -46 -85
-32 -22 8 -28 19 -42 84 l-15 75 -60 -1 c-71 -1 -126 -26 -192 -87 -73 -67
-123 -172 -123 -259 0 -47 34 -87 175 -203 113 -93 158 -151 174 -226 18 -81
0 -138 -65 -209 -81 -86 -193 -169 -269 -196 -76 -28 -236 -51 -278 -40 -39 9
-51 41 -35 90 18 53 44 70 188 120 146 50 175 64 214 103 74 73 56 111 -114
235 -91 66 -135 115 -167 185 -81 176 -28 377 142 548 138 138 283 184 436
139z m-2176 -110 c52 -24 71 -63 67 -131 -3 -31 -59 -57 -157 -73 -98 -15
-142 -36 -189 -92 -45 -52 -61 -104 -46 -156 12 -47 44 -92 139 -196 94 -104
114 -143 114 -226 0 -148 -71 -216 -283 -270 -94 -24 -135 -25 -206 -4 -87 25
-117 88 -78 169 20 42 29 45 139 54 96 8 195 42 195 68 0 30 -43 96 -115 175
-103 114 -138 185 -139 286 -1 93 16 131 99 220 65 70 125 111 232 158 89 39
171 45 228 18z m-859 -89 c61 -36 138 -128 183 -220 92 -188 79 -344 -37 -432
-59 -45 -97 -53 -249 -53 l-133 0 0 -80 c0 -46 -6 -95 -14 -113 -27 -65 -102
-87 -148 -44 -25 24 -48 97 -48 154 0 34 -26 63 -57 63 -52 0 -86 76 -63 144
11 34 14 36 55 36 24 0 55 4 69 9 27 11 33 34 55 205 14 108 38 179 80 240 82
118 200 153 307 91z m2125 -47 c77 -51 127 -226 136 -475 6 -173 -2 -222 -50
-297 -36 -57 -107 -106 -153 -106 -30 0 -78 26 -138 77 -48 41 -65 29 -122
-81 -56 -110 -78 -132 -116 -117 -47 18 -51 32 -38 128 6 48 15 162 19 252 l7
163 29 25 c24 22 35 24 73 19 72 -10 121 -44 172 -118 71 -105 98 -119 127
-65 13 24 17 54 17 117 -1 75 -7 103 -53 237 -51 152 -63 227 -39 251 20 20
92 14 129 -10z m-3452 -104 c41 -24 85 -95 141 -228 51 -120 65 -146 81 -146
11 0 32 42 59 120 55 162 102 223 169 223 46 0 82 -21 108 -60 15 -22 18 -51
19 -153 1 -69 9 -188 19 -265 30 -236 10 -392 -56 -451 -41 -37 -64 -38 -92
-5 -32 38 -41 117 -27 226 6 44 13 132 17 195 l6 115 -28 -25 c-15 -14 -49
-57 -76 -96 -75 -111 -127 -141 -189 -109 -39 20 -63 60 -95 155 -36 107 -72
194 -83 198 -20 6 -36 -34 -53 -136 -11 -59 -19 -156 -19 -218 0 -120 -18
-202 -51 -235 -43 -43 -132 -11 -169 62 -27 51 -23 89 26 277 27 101 37 166
44 272 13 201 38 252 144 285 56 18 73 18 105 -1z m2559 -194 c20 -16 66 -41
102 -55 36 -14 75 -31 88 -38 36 -17 67 -80 102 -206 26 -90 31 -125 27 -168
-12 -118 -90 -219 -191 -248 -75 -22 -261 -23 -301 -2 -62 32 -105 102 -131
214 -22 94 -14 131 45 221 56 87 71 120 71 163 0 59 81 149 133 149 10 0 35
-13 55 -30z"/>
<path d="M4301 1539 c-36 -36 -68 -131 -77 -229 -6 -64 -6 -67 17 -73 77 -21
236 6 277 47 l24 23 -46 94 c-53 108 -103 169 -140 169 -14 0 -37 -13 -55 -31z"/>
<path d="M5620 1132 c-14 -12 -28 -43 -40 -97 -35 -147 -23 -185 61 -185 62 0
119 23 119 47 0 10 11 42 25 71 29 62 31 98 9 130 -35 50 -131 69 -174 34z"/>
</g>
</svg>
